<svg width="161" height="120" viewBox="0 0 161 120" fill="none" xmlns="http://www.w3.org/2000/svg">
<rect width="159.41" height="119.558" transform="translate(0.820312)" fill="#0C3395"/>
<path d="M62.392 95.4468L63.7869 99.432L60.3994 96.8416L56.8127 99.432L58.2075 95.2475L54.8201 92.8563H59.0046L60.3994 88.8711L61.595 92.8563H65.7795L62.392 95.4468Z" fill="#F8CE46"/>
<path d="M82.5176 100.628L83.9124 104.812L80.3257 102.222L76.9382 104.812L78.1338 100.628L74.7463 98.2366H78.9309L80.3257 94.2513L81.7205 98.2366L85.905 98.0373L82.5176 100.628Z" fill="#F8CE46"/>
<path d="M117.189 80.7013L118.584 84.8858L114.998 82.0961L111.61 84.6865L112.806 80.7013L109.418 78.3101L113.603 78.1109L114.998 74.1256L116.392 78.1109H120.577L117.189 80.7013Z" fill="#F8CE46"/>
<path d="M102.444 95.4468L103.839 99.432L100.451 96.8416L96.8647 99.432L98.2595 95.2475L94.8721 92.8563H99.0566L100.451 88.8711L101.647 92.8563H105.832L102.444 95.4468Z" fill="#F8CE46"/>
<path d="M47.846 80.7013L49.2408 84.8858L45.6541 82.0961L42.2666 84.6865L43.4622 80.7013L40.0747 78.3101L44.2592 78.1109L45.6541 74.1256L46.8496 78.1109H51.2334L47.846 80.7013Z" fill="#F8CE46"/>
<path d="M42.4661 60.775L43.8609 64.7603L40.2742 62.1698L36.6875 64.7603L38.0823 60.5757L34.6948 58.1846H38.8793L40.2742 54.1993L41.4698 58.1846H45.8535L42.4661 60.775Z" fill="#F8CE46"/>
<path d="M62.392 26.1035L63.7869 30.288L60.3994 27.4983L56.8127 30.0888L58.2075 26.1035L54.8201 23.5131H59.0046L60.3994 19.5278L61.595 23.5131H65.7795L62.392 26.1035Z" fill="#F8CE46"/>
<path d="M47.846 40.6495L49.2408 44.834L45.6541 42.0444L42.2666 44.6348L43.4622 40.6495L40.0747 38.0591H44.2592L45.6541 34.0739L46.8496 38.0591H51.2334L47.846 40.6495Z" fill="#F8CE46"/>
<path d="M82.5176 20.524L83.9124 24.7085L80.3257 21.9189L76.9382 24.5093L78.1338 20.524L74.7463 17.9336H78.9309L80.3257 13.9484L81.7205 17.9336H85.905L82.5176 20.524Z" fill="#F8CE46"/>
<path d="M102.444 26.1035L103.839 30.288L100.451 27.4983L96.8647 30.0888L98.2595 26.1035L94.8721 23.5131H99.0566L100.451 19.5278L101.647 23.5131H105.832L102.444 26.1035Z" fill="#F8CE46"/>
<path d="M122.769 60.775L123.964 64.7603L120.577 62.1698L116.99 64.7603L118.385 60.5757L114.997 58.1846H119.182L120.577 54.1993L121.772 58.1846H125.957L122.769 60.775Z" fill="#F8CE46"/>
<path d="M117.189 40.6495L118.584 44.834L114.998 42.0444L111.61 44.6348L112.806 40.6495L109.418 38.0591H113.603L114.998 34.0739L116.392 38.0591H120.577L117.189 40.6495Z" fill="#F8CE46"/>
</svg>
