<svg width="160" height="120" viewBox="0 0 160 120" fill="none" xmlns="http://www.w3.org/2000/svg">
<g clip-path="url(#clip0)">
<path fill-rule="evenodd" clip-rule="evenodd" d="M0 0H227.159V9.20033H0V0ZM0 18.4007H227.159V27.601H0V18.4007ZM0 36.778H227.159V46.0017H0V36.778ZM0 55.1786H227.159V64.379H0V55.1786ZM0 73.5793H227.159V82.7796H0V73.5793ZM0 91.9566H227.159V101.157H0V91.9566ZM0 110.357H227.159V119.558H0V110.357Z" fill="#BD3D44"/>
<path fill-rule="evenodd" clip-rule="evenodd" d="M0 9.20032H227.159V18.4006H0V9.20032ZM0 27.601H227.159V36.778H0V27.601ZM0 45.9783H227.159V55.1786H0V45.9783ZM0 64.3789H227.159V73.5793H0V64.3789ZM0 82.7796H227.159V91.9799H0V82.7796ZM0 101.157H227.159V110.357H0V101.157Z" fill="white"/>
<path fill-rule="evenodd" clip-rule="evenodd" d="M0 0H90.8591V64.379H0V0Z" fill="#192F5D"/>
<path fill-rule="evenodd" clip-rule="evenodd" d="M7.56565 2.75537L8.40629 5.30064H11.0683L8.92002 6.86516L9.7373 9.43378L7.56565 7.84591L5.41735 9.41043L6.23464 6.86516L4.06299 5.30064H6.77172L7.56565 2.75537ZM22.7205 2.75537L23.5378 5.30064H26.2232L24.0515 6.86516L24.8688 9.43378L22.7205 7.84591L20.5489 9.41043L21.3661 6.86516L19.2178 5.30064H21.8799L22.7205 2.75537ZM37.852 2.75537L38.6927 5.30064H41.3313L39.183 6.86516L40.0003 9.43378L37.8287 7.84591L35.6804 9.41043L36.4977 6.86516L34.326 5.30064H37.0114L37.852 2.75537ZM53.0069 2.75537L53.8242 5.30064H56.5095L54.3379 6.86516L55.1785 9.43378L53.0069 7.84591L50.8352 9.41043L51.6759 6.86516L49.5042 5.30064H52.1662L53.0069 2.75537ZM68.1384 2.75537L68.979 5.30064H71.6411L69.4928 6.86516L70.31 9.43378L68.1384 7.84591L65.9901 9.41043L66.8074 6.86516L64.6591 5.30064H67.3211L68.1384 2.75537ZM83.2933 2.75537L84.1105 5.30064H86.7959L84.6243 6.86516L85.4649 9.43378L83.2933 7.84591L81.1216 9.41043L81.9622 6.86516L79.7906 5.30064H82.476L83.2933 2.75537ZM15.1548 9.20027L15.972 11.7455H18.6574L16.4858 13.3101L17.2797 15.8553L15.1781 14.2908L13.0065 15.8553L13.777 13.3101L11.6754 11.7455H14.3375L15.1548 9.20027ZM30.2863 9.20027L31.1269 11.7455H33.7889L31.6173 13.3101L32.4579 15.8553L30.2863 14.2908L28.1146 15.8553L28.9553 13.3101L26.7836 11.7455H29.469L30.2863 9.20027ZM45.4411 9.20027L46.2584 11.7455H48.9438L46.7721 13.3101L47.5894 15.8553L45.4411 14.2908L43.2695 15.8553L44.0868 13.3101L41.9385 11.7455H44.6005L45.4411 9.20027ZM60.5726 9.20027L61.4133 11.7455H64.0753L61.9036 13.3101L62.7443 15.8553L60.5726 14.2908L58.4243 15.8553L59.2416 13.3101L57.07 11.7455H59.7787L60.5726 9.20027ZM75.7275 9.20027L76.5448 11.7455H79.2302L77.0585 13.3101L77.8758 15.8553L75.7275 14.2908L73.5558 15.8553L74.3731 13.3101L72.2248 11.7455H74.8869L75.7275 9.20027ZM7.56565 15.6218L8.40629 18.2138H11.0683L8.92002 19.7783L9.7373 22.3236L7.56565 20.7357L5.41735 22.3236L6.23464 19.755L4.06299 18.1904H6.77172L7.56565 15.6218ZM22.7205 15.6218L23.5378 18.1904H26.2232L24.0515 19.755L24.8688 22.3002L22.7205 20.7124L20.5489 22.3002L21.3661 19.7316L19.2178 18.1671H21.8799L22.7205 15.6218ZM37.852 15.6218L38.6927 18.1904H41.3313L39.183 19.755L40.0003 22.3002L37.8287 20.7124L35.6804 22.3002L36.4977 19.7316L34.326 18.1671H37.0114L37.852 15.6218ZM53.0069 15.6218L53.8242 18.1904H56.5095L54.3379 19.755L55.1785 22.3002L53.0069 20.7124L50.8352 22.3002L51.6759 19.7316L49.5042 18.1671H52.1662L53.0069 15.6218ZM68.1384 15.6218L68.979 18.1904H71.6411L69.4928 19.755L70.31 22.3002L68.1384 20.7124L65.9901 22.3002L66.8074 19.7316L64.6591 18.1671H67.3211L68.1384 15.6218ZM83.2933 15.6218L84.1105 18.1904H86.7959L84.6243 19.755L85.4649 22.3002L83.2933 20.7124L81.1216 22.3002L81.9622 19.7316L79.7906 18.1671H82.476L83.2933 15.6218ZM15.1548 22.0667L15.972 24.612H18.6574L16.4858 26.1765L17.3031 28.7451L15.1548 27.1573L12.9831 28.7218L13.8004 26.1765L11.6521 24.612H14.3141L15.1548 22.0667ZM30.2863 22.0667L31.1269 24.612H33.7889L31.6173 26.1765L32.4579 28.7451L30.2863 27.1573L28.1146 28.7218L28.9553 26.1765L26.7836 24.612H29.469L30.2863 22.0667ZM45.4411 22.0667L46.2584 24.612H48.9438L46.7721 26.1765L47.5894 28.7451L45.4411 27.1573L43.2695 28.7218L44.0868 26.1765L41.9385 24.612H44.6005L45.4411 22.0667ZM60.5726 22.0667L61.4133 24.612H64.0753L61.927 26.1765L62.7443 28.7451L60.5726 27.1573L58.4243 28.7218L59.2416 26.1765L57.07 24.612H59.7787L60.5726 22.0667ZM75.7275 22.0667L76.5448 24.612H79.2302L77.0585 26.1765L77.8758 28.7451L75.7275 27.1573L73.5558 28.7218L74.3731 26.1765L72.2248 24.612H74.8869L75.7275 22.0667ZM7.56565 28.5116L8.40629 31.0569H11.0683L8.92002 32.6214L9.7373 35.19L7.56565 33.6021L5.41735 35.1667L6.23464 32.6214L4.06299 31.0569H6.77172L7.56565 28.5116ZM22.7205 28.5116L23.5378 31.0569H26.2232L24.0515 32.6214L24.8688 35.1667L22.7205 33.6021L20.5489 35.1667L21.3661 32.6214L19.2178 31.0569H21.8799L22.7205 28.5116ZM37.852 28.5116L38.6927 31.0569H41.3313L39.183 32.6214L40.0003 35.19L37.8287 33.6021L35.6804 35.1667L36.4977 32.6214L34.326 31.0569H37.0114L37.852 28.5116ZM53.0069 28.5116L53.8242 31.0569H56.5095L54.3379 32.6214L55.1785 35.19L53.0069 33.6021L50.8352 35.1667L51.6759 32.6214L49.5042 31.0569H52.1662L53.0069 28.5116ZM68.1384 28.5116L68.979 31.0569H71.6411L69.4928 32.6214L70.31 35.19L68.1384 33.6021L65.9901 35.1667L66.8074 32.6214L64.6591 31.0569H67.3211L68.1384 28.5116ZM83.2933 28.5116L84.1105 31.0569H86.7959L84.6243 32.6214L85.4649 35.19L83.2933 33.6021L81.1216 35.1667L81.9622 32.6214L79.7906 31.0569H82.476L83.2933 28.5116ZM15.1548 34.9565L15.972 37.5018H18.6574L16.4858 39.0663L17.3031 41.6116L15.1548 40.0237L12.9831 41.6116L13.8004 39.0429L11.6521 37.4784H14.3141L15.1548 34.9565ZM30.2863 34.9565L31.1269 37.5018H33.7889L31.6173 39.0663L32.4579 41.6116L30.2863 40.0237L28.1146 41.6116L28.9553 39.0429L26.7836 37.4784H29.469L30.2863 34.9565ZM45.4411 34.9565L46.2584 37.5018H48.9438L46.7721 39.0663L47.5894 41.6116L45.4411 40.0237L43.2695 41.6116L44.0868 39.0429L41.9385 37.4784H44.6005L45.4411 34.9565ZM60.5726 34.9565L61.4133 37.5018H64.0753L61.927 39.0663L62.7443 41.6116L60.5726 40.0237L58.4243 41.6116L59.2416 39.0429L57.07 37.4784H59.7787L60.5726 34.9565ZM75.7275 34.9565L76.5448 37.5018H79.2302L77.0585 39.0663L77.8758 41.6116L75.7275 40.0237L73.5558 41.6116L74.3731 39.0429L72.2248 37.4784H74.8869L75.7275 34.9565ZM7.56565 41.3781L8.40629 43.9467H11.0683L8.92002 45.5112L9.7373 48.0331L7.56565 46.4686L5.41735 48.0331L6.23464 45.4879L4.06299 43.9233H6.77172L7.56565 41.3781ZM22.7205 41.3781L23.5378 43.9467H26.2232L24.0515 45.5112L24.8922 48.0331L22.7205 46.4686L20.5489 48.0331L21.3895 45.4879L19.2178 43.9233H21.8799L22.7205 41.3781ZM37.852 41.3781L38.6927 43.9467H41.3313L39.183 45.5112L40.0003 48.0331L37.8287 46.4686L35.6804 48.0331L36.4977 45.4879L34.326 43.9233H37.0114L37.852 41.3781ZM53.0069 41.3781L53.8242 43.9467H56.5095L54.3379 45.5112L55.1785 48.0331L53.0069 46.4686L50.8352 48.0331L51.6759 45.4879L49.5042 43.9233H52.1662L53.0069 41.3781ZM68.1384 41.3781L68.979 43.9467H71.6411L69.4928 45.5112L70.31 48.0331L68.1384 46.4686L65.9901 48.0331L66.8074 45.4879L64.6591 43.9233H67.3211L68.1384 41.3781ZM83.2933 41.3781L84.1105 43.9467H86.7959L84.6243 45.5112L85.4649 48.0331L83.2933 46.4686L81.1216 48.0331L81.9622 45.4879L79.7906 43.9233H82.476L83.2933 41.3781ZM15.1548 47.823L15.972 50.3682H18.6574L16.4858 51.9327L17.3031 54.5014L15.1548 52.9135L12.9831 54.478L13.8004 51.9327L11.6521 50.3682H14.3141L15.1548 47.823ZM30.2863 47.823L31.1269 50.3682H33.7889L31.6173 51.9327L32.4579 54.5014L30.2863 52.9135L28.1146 54.478L28.9553 51.9327L26.7836 50.3682H29.469L30.2863 47.823ZM45.4411 47.823L46.2584 50.3682H48.9438L46.7721 51.9327L47.5894 54.5014L45.4411 52.9135L43.2695 54.478L44.0868 51.9327L41.9385 50.3682H44.6005L45.4411 47.823ZM60.5726 47.823L61.4133 50.3682H64.0753L61.927 51.9327L62.7443 54.5014L60.5726 52.9135L58.4243 54.478L59.2416 51.9327L57.07 50.3682H59.7787L60.5726 47.823ZM75.7275 47.823L76.5448 50.3682H79.2302L77.0585 51.9327L77.8758 54.5014L75.7275 52.9135L73.5558 54.478L74.3731 51.9327L72.2248 50.3682H74.8869L75.7275 47.823ZM7.56565 54.2679L8.40629 56.8131H11.0683L8.92002 58.3776L9.7373 60.9229L7.56565 59.3584L5.41735 60.9229L6.23464 58.3543L4.06299 56.7898H6.77172L7.56565 54.2679ZM22.7205 54.2679L23.5378 56.8131H26.2232L24.0515 58.3776L24.8922 60.9229L22.7205 59.3584L20.5489 60.9229L21.3895 58.3543L19.2178 56.7898H21.8799L22.7205 54.2679ZM37.852 54.2679L38.6927 56.8131H41.3313L39.2297 58.3776L40.047 60.9229L37.8754 59.3584L35.7271 60.9229L36.5444 58.3543L34.3727 56.7898H37.0581L37.852 54.2679ZM53.0069 54.2679L53.8242 56.8131H56.5095L54.3379 58.3776L55.1785 60.9229L53.0069 59.3584L50.8352 60.9229L51.6759 58.3543L49.5042 56.7898H52.1662L53.0069 54.2679ZM68.1384 54.2679L68.979 56.8131H71.6411L69.4928 58.3776L70.31 60.9229L68.1384 59.3584L65.9901 60.9229L66.8074 58.3543L64.6591 56.7898H67.3211L68.1384 54.2679ZM83.2933 54.2679L84.1105 56.8131H86.7959L84.6243 58.3776L85.4649 60.9229L83.2933 59.3584L81.1216 60.9229L81.9622 58.3543L79.7906 56.7898H82.476L83.2933 54.2679Z" fill="white"/>
</g>
<defs>
<clipPath id="clip0">
<rect width="159.41" height="119.558" fill="white"/>
</clipPath>
</defs>
</svg>
