<svg width="160" height="120" viewBox="0 0 160 120" fill="none" xmlns="http://www.w3.org/2000/svg">
<g clip-path="url(#clip0)">
<path d="M0.410156 0H159.82V119.558H0.410156V0Z" fill="#000066"/>
<path d="M0.410156 0V6.9742L76.8772 62.2696H86.5165V55.2954L10.0495 0H0.410156ZM86.5165 0V6.9742L10.0495 62.2696H0.410156V55.2954L76.8772 0H86.5165Z" fill="white"/>
<path d="M36.2774 0V62.2696H50.6243V0H36.2774ZM0.410156 20.7482V41.5214H86.5165V20.7482H0.410156Z" fill="white"/>
<path d="M0.410156 24.9078V37.3618H86.5165V24.9078H0.410156ZM39.1667 0V62.2696H47.735V0H39.1418H39.1667ZM0.410156 62.2696L29.104 41.5214H35.5302L6.83638 62.2696H0.410156ZM0.410156 0L29.104 20.7482H22.7027L0.410156 4.63286V0ZM51.3965 20.7482L80.0903 0H86.5165L57.8227 20.7482H51.3965ZM86.5165 62.2696L57.8227 41.5214H64.224L86.5165 57.6367V62.2696Z" fill="#CC0000"/>
<path fill-rule="evenodd" clip-rule="evenodd" d="M75.0836 97.7633L64.1989 98.7098L65.6934 109.52L58.1961 101.624L50.6988 109.52L52.1933 98.7098L41.3086 97.7633L50.6988 92.2089L44.6462 83.1175L54.8585 86.9782L58.1961 76.5917L61.5587 86.9782L71.7709 83.1175L65.7183 92.2089L75.0836 97.7633ZM121.611 107.726L118.971 103.791L123.405 105.46L124.849 100.952L126.294 105.46L130.728 103.791L128.112 107.726L132.197 110.143L127.465 110.566L128.112 115.274L124.874 111.811L121.587 115.274L122.234 110.566L117.502 110.167L121.611 107.726ZM121.587 37.4615L118.971 33.526L123.405 35.1948L124.849 30.6865L126.294 35.1948L130.728 33.526L128.112 37.4615L132.197 39.9024L127.465 40.301L128.112 45.0085L124.874 41.5712L121.587 44.9836L122.234 40.301L117.502 39.9024L121.587 37.4615ZM95.2589 66.0058L92.6436 62.0704L97.0772 63.7392L98.5219 59.2309L99.9914 63.7392L104.425 62.0704L101.785 66.0058L105.87 68.4219L101.137 68.8453L101.81 73.5529L98.5219 70.0907L95.2839 73.5529L95.9065 68.8453L91.1741 68.4468L95.2589 66.0058ZM145.05 58.9818L142.385 55.0464L146.818 56.7152L148.263 52.2069L149.732 56.7152L154.166 55.0464L151.551 58.9818L155.611 61.3979L150.878 61.8213L151.526 66.504L148.288 63.0667L145 66.504L145.647 61.8213L140.915 61.3979L145.05 58.9818ZM135.41 79.7052L132.845 81.3242L133.567 78.3601L131.251 76.4173L134.265 76.1682L135.41 73.3786L136.581 76.1931L139.595 76.4173L137.278 78.3601L138.001 81.3242" fill="white"/>
</g>
<defs>
<clipPath id="clip0">
<rect width="159.41" height="119.558" fill="white" transform="translate(0.410156)"/>
</clipPath>
</defs>
</svg>
